<mxfile host="Electron" modified="2024-06-04T00:06:46.399Z" agent="Mozilla/5.0 (Windows NT 10.0; Win64; x64) AppleWebKit/537.36 (KHTML, like Gecko) draw.io/24.4.13 Chrome/124.0.6367.207 Electron/30.0.6 Safari/537.36" etag="lQp4dw_H3y8FH0h4EL9X" version="24.4.13" type="device">
  <diagram name="Страница — 1" id="8ni2wdxfXByG9wE_w4nF">
    <mxGraphModel dx="915" dy="648" grid="1" gridSize="10" guides="1" tooltips="1" connect="1" arrows="1" fold="1" page="1" pageScale="1" pageWidth="827" pageHeight="1169" math="0" shadow="0">
      <root>
        <mxCell id="0" />
        <mxCell id="1" parent="0" />
        <mxCell id="b0yIXeJS1uDvcXZDkfF_-1" value="Начало" style="rounded=1;whiteSpace=wrap;html=1;arcSize=50;" vertex="1" parent="1">
          <mxGeometry x="354" y="30" width="120" height="20" as="geometry" />
        </mxCell>
        <mxCell id="b0yIXeJS1uDvcXZDkfF_-2" value="" style="endArrow=none;dashed=1;html=1;rounded=0;exitX=0;exitY=0.5;exitDx=0;exitDy=0;entryX=1;entryY=0.5;entryDx=0;entryDy=0;exitPerimeter=0;" edge="1" source="b0yIXeJS1uDvcXZDkfF_-3" target="b0yIXeJS1uDvcXZDkfF_-1" parent="1">
          <mxGeometry width="50" height="50" relative="1" as="geometry">
            <mxPoint x="550" y="55" as="sourcePoint" />
            <mxPoint x="530" y="55" as="targetPoint" />
          </mxGeometry>
        </mxCell>
        <mxCell id="b0yIXeJS1uDvcXZDkfF_-3" value="    Входные данные:&#xa;     int[,] mas, DataGridView Table" style="strokeWidth=2;shape=mxgraph.flowchart.annotation_1;align=left;pointerEvents=1;recursiveResize=1;autosize=0;verticalAlign=middle;horizontal=1;" vertex="1" parent="1">
          <mxGeometry x="530" y="5" width="50" height="70" as="geometry" />
        </mxCell>
        <mxCell id="b0yIXeJS1uDvcXZDkfF_-4" value="" style="endArrow=none;html=1;rounded=0;entryX=0.5;entryY=0;entryDx=0;entryDy=0;exitX=0.5;exitY=1;exitDx=0;exitDy=0;" edge="1" target="b0yIXeJS1uDvcXZDkfF_-5" parent="1" source="b0yIXeJS1uDvcXZDkfF_-1">
          <mxGeometry width="50" height="50" relative="1" as="geometry">
            <mxPoint x="470" y="130" as="sourcePoint" />
            <mxPoint x="500" y="50" as="targetPoint" />
          </mxGeometry>
        </mxCell>
        <mxCell id="b0yIXeJS1uDvcXZDkfF_-5" value="length_for_table = Get_Length(mas) + 1" style="shape=process;whiteSpace=wrap;html=1;backgroundOutline=1;" vertex="1" parent="1">
          <mxGeometry x="308.5" y="60" width="211" height="40" as="geometry" />
        </mxCell>
        <mxCell id="b0yIXeJS1uDvcXZDkfF_-7" value="i = 1; length_for_table" style="strokeWidth=2;html=1;shape=mxgraph.flowchart.loop_limit;whiteSpace=wrap;" vertex="1" parent="1">
          <mxGeometry x="364" y="110" width="100" height="40" as="geometry" />
        </mxCell>
        <mxCell id="b0yIXeJS1uDvcXZDkfF_-8" value="i++" style="strokeWidth=2;html=1;shape=mxgraph.flowchart.loop_limit;whiteSpace=wrap;direction=west;" vertex="1" parent="1">
          <mxGeometry x="364" y="270" width="100" height="20" as="geometry" />
        </mxCell>
        <mxCell id="b0yIXeJS1uDvcXZDkfF_-9" value="" style="endArrow=none;html=1;rounded=0;entryX=0.5;entryY=1;entryDx=0;entryDy=0;entryPerimeter=0;exitX=0.5;exitY=0;exitDx=0;exitDy=0;exitPerimeter=0;" edge="1" source="b0yIXeJS1uDvcXZDkfF_-12" target="b0yIXeJS1uDvcXZDkfF_-7" parent="1">
          <mxGeometry width="50" height="50" relative="1" as="geometry">
            <mxPoint x="493" y="280" as="sourcePoint" />
            <mxPoint x="569" y="450" as="targetPoint" />
          </mxGeometry>
        </mxCell>
        <mxCell id="b0yIXeJS1uDvcXZDkfF_-10" value="" style="endArrow=none;html=1;rounded=0;exitX=0.5;exitY=1;exitDx=0;exitDy=0;exitPerimeter=0;entryX=0.5;entryY=0;entryDx=0;entryDy=0;entryPerimeter=0;" edge="1" source="b0yIXeJS1uDvcXZDkfF_-8" target="b0yIXeJS1uDvcXZDkfF_-13" parent="1">
          <mxGeometry width="50" height="50" relative="1" as="geometry">
            <mxPoint x="322" y="620" as="sourcePoint" />
            <mxPoint x="296" y="420" as="targetPoint" />
          </mxGeometry>
        </mxCell>
        <mxCell id="b0yIXeJS1uDvcXZDkfF_-11" value="" style="endArrow=none;html=1;rounded=0;entryX=0.5;entryY=0;entryDx=0;entryDy=0;entryPerimeter=0;exitX=0.5;exitY=0;exitDx=0;exitDy=0;" edge="1" target="b0yIXeJS1uDvcXZDkfF_-8" parent="1" source="b0yIXeJS1uDvcXZDkfF_-18">
          <mxGeometry width="50" height="50" relative="1" as="geometry">
            <mxPoint x="493" y="440" as="sourcePoint" />
            <mxPoint x="323" y="460" as="targetPoint" />
          </mxGeometry>
        </mxCell>
        <mxCell id="b0yIXeJS1uDvcXZDkfF_-12" value="j = 1; length_for_table" style="strokeWidth=2;html=1;shape=mxgraph.flowchart.loop_limit;whiteSpace=wrap;" vertex="1" parent="1">
          <mxGeometry x="364" y="160" width="100" height="40" as="geometry" />
        </mxCell>
        <mxCell id="b0yIXeJS1uDvcXZDkfF_-13" value="j++" style="strokeWidth=2;html=1;shape=mxgraph.flowchart.loop_limit;whiteSpace=wrap;direction=west;" vertex="1" parent="1">
          <mxGeometry x="364" y="240" width="100" height="20" as="geometry" />
        </mxCell>
        <mxCell id="b0yIXeJS1uDvcXZDkfF_-14" value="Table.Rows[i].Cells[j].Value = mas[i - 1, j - 1]" style="rounded=0;whiteSpace=wrap;html=1;" vertex="1" parent="1">
          <mxGeometry x="294.5" y="210" width="239" height="20" as="geometry" />
        </mxCell>
        <mxCell id="b0yIXeJS1uDvcXZDkfF_-15" value="" style="endArrow=none;html=1;rounded=0;entryX=0.5;entryY=1;entryDx=0;entryDy=0;entryPerimeter=0;exitX=0.5;exitY=0;exitDx=0;exitDy=0;" edge="1" source="b0yIXeJS1uDvcXZDkfF_-14" target="b0yIXeJS1uDvcXZDkfF_-12" parent="1">
          <mxGeometry width="50" height="50" relative="1" as="geometry">
            <mxPoint x="519" y="540" as="sourcePoint" />
            <mxPoint x="569" y="490" as="targetPoint" />
          </mxGeometry>
        </mxCell>
        <mxCell id="b0yIXeJS1uDvcXZDkfF_-16" value="" style="endArrow=none;html=1;rounded=0;entryX=0.5;entryY=1;entryDx=0;entryDy=0;exitX=0.5;exitY=1;exitDx=0;exitDy=0;exitPerimeter=0;" edge="1" source="b0yIXeJS1uDvcXZDkfF_-13" target="b0yIXeJS1uDvcXZDkfF_-14" parent="1">
          <mxGeometry width="50" height="50" relative="1" as="geometry">
            <mxPoint x="519" y="540" as="sourcePoint" />
            <mxPoint x="569" y="490" as="targetPoint" />
          </mxGeometry>
        </mxCell>
        <mxCell id="b0yIXeJS1uDvcXZDkfF_-17" value="" style="endArrow=none;html=1;rounded=0;entryX=0.5;entryY=1;entryDx=0;entryDy=0;exitX=0.5;exitY=0;exitDx=0;exitDy=0;exitPerimeter=0;" edge="1" parent="1" source="b0yIXeJS1uDvcXZDkfF_-7" target="b0yIXeJS1uDvcXZDkfF_-5">
          <mxGeometry width="50" height="50" relative="1" as="geometry">
            <mxPoint x="490" y="290" as="sourcePoint" />
            <mxPoint x="540" y="240" as="targetPoint" />
          </mxGeometry>
        </mxCell>
        <mxCell id="b0yIXeJS1uDvcXZDkfF_-18" value="Table.Rows[0].Cells[0].Selected = false" style="rounded=0;whiteSpace=wrap;html=1;" vertex="1" parent="1">
          <mxGeometry x="304" y="300" width="220" height="20" as="geometry" />
        </mxCell>
        <mxCell id="b0yIXeJS1uDvcXZDkfF_-19" value="Конец" style="rounded=1;whiteSpace=wrap;html=1;arcSize=50;" vertex="1" parent="1">
          <mxGeometry x="354" y="330" width="120" height="20" as="geometry" />
        </mxCell>
        <mxCell id="b0yIXeJS1uDvcXZDkfF_-20" value="" style="endArrow=none;html=1;rounded=0;entryX=0.5;entryY=0;entryDx=0;entryDy=0;exitX=0.5;exitY=1;exitDx=0;exitDy=0;" edge="1" target="b0yIXeJS1uDvcXZDkfF_-19" parent="1" source="b0yIXeJS1uDvcXZDkfF_-18">
          <mxGeometry width="50" height="50" relative="1" as="geometry">
            <mxPoint x="520" y="460" as="sourcePoint" />
            <mxPoint x="550" y="500" as="targetPoint" />
          </mxGeometry>
        </mxCell>
      </root>
    </mxGraphModel>
  </diagram>
</mxfile>
